<svg width="104" height="17" viewBox="0 0 104 17" fill="none" xmlns="http://www.w3.org/2000/svg">
<g filter="url(#filter0_b)">
<path d="M0.880094 5.584C0.880094 4.16 1.29609 3.016 2.12809 2.152C2.96009 1.288 4.09609 0.855999 5.53609 0.855999C6.99209 0.855999 8.48009 0.999999 10.0001 1.288L9.52009 5.128C7.93609 4.76 6.84809 4.576 6.25609 4.576C5.50409 4.576 5.12809 4.88 5.12809 5.488C5.12809 5.728 5.30409 5.96 5.65609 6.184C6.02409 6.408 6.46409 6.648 6.97609 6.904C7.48809 7.144 8.00009 7.44 8.51209 7.792C9.02409 8.128 9.45609 8.616 9.80809 9.256C10.1761 9.896 10.3601 10.632 10.3601 11.464C10.3601 12.984 9.95209 14.16 9.13609 14.992C8.32009 15.824 7.16009 16.24 5.65609 16.24C4.16809 16.24 2.71209 16.008 1.28809 15.544L1.55209 11.968C3.26409 12.464 4.45609 12.712 5.12809 12.712C5.80009 12.712 6.13609 12.416 6.13609 11.824C6.13609 11.52 5.95209 11.24 5.58409 10.984C5.23209 10.728 4.80009 10.472 4.28809 10.216C3.77609 9.96 3.25609 9.664 2.72809 9.328C2.21609 8.992 1.77609 8.504 1.40809 7.864C1.05609 7.224 0.880094 6.464 0.880094 5.584ZM22.4983 16H18.4903L18.0343 13.648H15.2023L14.7463 16H10.9303L13.6663 1.096H19.7623L22.4983 16ZM17.5783 10.84L16.7383 5.512H16.5703L15.7303 10.84H17.5783ZM28.0674 16H23.9874V1.096H28.0674V16ZM40.9151 11.704C40.9151 14.568 39.3791 16 36.3071 16H30.4271V1.096H36.1871C37.7071 1.096 38.8351 1.408 39.5711 2.032C40.3071 2.64 40.6751 3.616 40.6751 4.96C40.6751 6.304 40.1231 7.328 39.0191 8.032V8.176C40.2831 8.672 40.9151 9.848 40.9151 11.704ZM35.3471 13.336C35.8271 13.336 36.1471 13.232 36.3071 13.024C36.4831 12.8 36.5711 12.352 36.5711 11.68C36.5711 10.992 36.4831 10.512 36.3071 10.24C36.1311 9.952 35.8111 9.808 35.3471 9.808H34.5791V13.336H35.3471ZM35.3711 7.48C35.7391 7.48 35.9951 7.368 36.1391 7.144C36.2831 6.92 36.3551 6.528 36.3551 5.968C36.3551 5.392 36.2751 4.992 36.1151 4.768C35.9711 4.528 35.7151 4.408 35.3471 4.408H34.5791V7.48H35.3711ZM53.0139 16H49.0059L48.5499 13.648H45.7179L45.2619 16H41.4459L44.1819 1.096H50.2779L53.0139 16ZM48.0939 10.84L47.2539 5.512H47.0859L46.2459 10.84H48.0939ZM73.7261 16H69.9581V8.224H69.7421L68.3261 16H64.4621L63.1181 8.224H62.8781V16H59.1581L59.6621 1.096H65.0621L66.4061 9.16H66.5981L67.8941 1.096H73.2221L73.7261 16ZM86.3889 16H82.3809L81.9249 13.648H79.0929L78.6369 16H74.8209L77.5569 1.096H83.6529L86.3889 16ZM81.4689 10.84L80.6289 5.512H80.4609L79.6209 10.84H81.4689ZM91.958 16H87.878V1.096H91.958V16ZM93.6457 5.584C93.6457 4.16 94.0617 3.016 94.8937 2.152C95.7257 1.288 96.8617 0.855999 98.3017 0.855999C99.7577 0.855999 101.246 0.999999 102.766 1.288L102.286 5.128C100.702 4.76 99.6137 4.576 99.0217 4.576C98.2697 4.576 97.8937 4.88 97.8937 5.488C97.8937 5.728 98.0697 5.96 98.4217 6.184C98.7897 6.408 99.2297 6.648 99.7417 6.904C100.254 7.144 100.766 7.44 101.278 7.792C101.79 8.128 102.222 8.616 102.574 9.256C102.942 9.896 103.126 10.632 103.126 11.464C103.126 12.984 102.718 14.16 101.902 14.992C101.086 15.824 99.9257 16.24 98.4217 16.24C96.9337 16.24 95.4777 16.008 94.0537 15.544L94.3177 11.968C96.0297 12.464 97.2217 12.712 97.8937 12.712C98.5657 12.712 98.9017 12.416 98.9017 11.824C98.9017 11.52 98.7177 11.24 98.3497 10.984C97.9977 10.728 97.5657 10.472 97.0537 10.216C96.5417 9.96 96.0217 9.664 95.4937 9.328C94.9817 8.992 94.5417 8.504 94.1737 7.864C93.8217 7.224 93.6457 6.464 93.6457 5.584Z" fill="white"/>
</g>
<defs>
<filter id="filter0_b" x="-3.1199" y="-3.144" width="110.246" height="23.384" filterUnits="userSpaceOnUse" color-interpolation-filters="sRGB">
<feFlood flood-opacity="0" result="BackgroundImageFix"/>
<feGaussianBlur in="BackgroundImage" stdDeviation="2"/>
<feComposite in2="SourceAlpha" operator="in" result="effect1_backgroundBlur"/>
<feBlend mode="normal" in="SourceGraphic" in2="effect1_backgroundBlur" result="shape"/>
</filter>
</defs>
</svg>
